<?xml version="1.0" encoding="UTF-8"?>
<svg enable-background="new 0 0 512 512" version="1.1" viewBox="0 0 512 512" xml:space="preserve" xmlns="http://www.w3.org/2000/svg">
		<path d="m512 270.53c0-29.671-15.556-57.062-40.399-72.441 5.486-11.432 8.351-23.965 8.351-36.78 0-36.87-45.526-66.747-75.336-82.353-3.183-44.072-40.041-78.955-84.89-78.955-25.366 0-48.57 10.245-64.434 27.94-16.004-17.693-38.714-27.94-63.018-27.94-29.505 0-57.423 15.827-72.742 41.018-7.072 11.63-11.293 24.926-12.182 38.509-5e-3 0.079-0.016 0.157-0.021 0.236-1.797 0.915-3.976 2.061-6.637 3.498-6.691 3.612-16.797 9.46-26.942 16.806-27.671 20.035-41.702 40.639-41.702 61.241 0 12.815 2.864 25.348 8.35 36.78-24.842 15.379-40.398 42.77-40.398 72.441 0 28.674 14.233 54.992 37.699 70.712-3.713 9.7-5.651 20.085-5.651 30.494 0 30.764 16.25 58.64 42.715 73.831 11.123 38.767 55.398 66.434 107.5 66.434 26.955 0 53.342-7.911 73.685-21.861 20.217 14.131 46.093 21.861 73.797 21.861 52.098 0 96.374-27.667 107.5-66.434 26.466-15.19 42.715-43.067 42.715-73.831 0-10.408-1.938-20.793-5.651-30.494 23.466-15.72 37.699-42.037 37.699-70.712zm-329.74 221.47c-44.051 0-82.353-23.746-89.093-55.236-0.633-2.958-2.572-5.471-5.272-6.834-16.159-8.156-27.836-22.266-32.956-38.924 8.358 4.165 17.362 6.284 26.753 6.284h0.03c13.606 0 27.571-4.986 38.067-13.618 4.132-3.398 4.745-9.985 1.385-14.08-3.376-4.114-9.976-4.742-14.073-1.383-7.25 5.94-16.03 9.08-25.4 9.08-11.213 0-21.684-4.603-29.259-12.721 0.863-7.945 3.167-15.578 6.894-22.769 2.537-4.895 0.633-10.919-4.255-13.468-21.639-11.282-35.08-33.431-35.08-57.802 0-25.488 15.004-48.778 38.224-59.333 2.648-1.204 4.642-3.501 5.459-6.293s0.378-5.802-1.202-8.244c-6.825-10.544-10.433-22.769-10.433-35.351 0-23.708 34.019-47.372 56.729-59.765 4.11 20.794 15.909 39.653 33.284 52.372 4.224 3.092 10.812 2.16 13.977-2.162 3.262-4.457 2.294-10.714-2.163-13.976-25.223-18.464-33.84-53.834-19.825-81.763 10.947-21.819 33.798-36.014 58.224-36.014 21.223 0 40.865 10.219 53.1 27.477l1e-3 1.009c-0.04 6.593-0.058 21.222-0.036 54.284h-55.63c-4.044 0-7.69 2.436-9.238 6.172s-0.693 8.037 2.165 10.897c15.629 15.637 15.629 41.079 1e-3 56.716-15.161 15.17-41.556 15.124-56.672 0-3.904-3.906-10.235-3.908-14.142-3e-3 -3.906 3.904-3.908 10.236-3e-3 14.142 1.544 1.545 3.164 2.987 4.839 4.34l-25.319 26.002c-13.61 13.669-13.594 35.867 0.048 49.516 13.376 13.384 36.24 13.324 49.556 1e-3 3.904-3.907 3.902-10.238-4e-3 -14.142-3.908-3.904-10.237-3.903-14.141 2e-3 -5.507 5.509-15.573 5.696-21.264 2e-3 -5.866-5.869-5.866-15.419 0-21.289 0.03-0.031 0.061-0.062 0.091-0.093 0 0 29.178-29.965 29.181-29.969 0.34-0.349 10.461 2.572 11.733 2.737 18.395 2.38 37.142-4 50.242-17.107 18.327-18.337 22.312-45.673 11.956-67.924h36.618c0.023 25.576 0.064 59.411 0.127 104.19h-24.483v-2.527c0-5.523-4.477-10-10-10s-10 4.477-10 10v25.051c0 5.523 4.477 10 10 10s10-4.477 10-10v-2.523h24.511c7e-3 4.729 0.073 49.256 0.1 66.175h-27.99c-1.692-4.666-4.397-9.043-8.131-12.779-6.618-6.622-15.417-10.268-24.777-10.268s-18.16 3.646-24.778 10.268c-3.904 3.907-3.902 10.238 4e-3 14.143 3.907 3.903 10.237 3.902 14.142-3e-3 13.279-13.28 35.044 7.501 21.263 21.288-3.904 3.906-3.903 10.238 3e-3 14.142 3.767 3.765 10.277 3.864 14.142-3e-3 4.786-4.789 7.889-10.631 9.32-16.787h26.834c0.039 23.033 0.078 44.837 0.117 64.198h-78.456c-2.653 0-5.197 1.054-7.073 2.931-13.658 13.665-13.658 35.899-1e-3 49.565 13.272 13.281 36.357 13.207 49.555 1e-3 3.904-3.907 3.903-10.238-3e-3 -14.142-3.907-3.904-10.236-3.903-14.14 1e-3 -5.623 5.624-15.677 5.593-21.265 2e-3 -4.967-4.97-5.729-12.579-2.283-18.358h73.708c0.037 17.078 0.139 52.249 0.155 55.421-17.192 12.272-40.115 19.241-63.698 19.241zm274.66-163.67c-4.888 2.549-6.792 8.573-4.255 13.468 4.834 9.329 7.286 19.401 7.286 29.936 0 24.736-13.735 47.035-35.845 58.195-2.701 1.363-4.639 3.876-5.272 6.834-6.741 31.489-45.043 55.235-89.094 55.235-23.897 0-46.84-6.966-63.748-19.23l-0.081-55.433h36.145c3.638 15.471 17.541 27.026 34.1 27.026 19.32 0 35.038-15.724 35.038-35.051s-15.718-35.051-35.038-35.051c-15.117 0-28.028 9.628-32.93 23.076h-37.344l-0.093-64.198h92.875c4.314 14.469 17.73 25.051 33.577 25.051 19.32 0 35.038-15.724 35.038-35.051s-15.718-35.051-35.038-35.051c-15.847 0-29.263 10.582-33.577 25.051h-92.905l-0.096-66.175h21.893c4.314 14.469 17.73 25.051 33.577 25.051 19.32 0 35.038-15.724 35.038-35.051s-15.718-35.051-35.038-35.051c-15.847 0-29.263 10.582-33.577 25.051h-21.922l-0.152-104.19h29.209c4.449 14.248 17.763 24.619 33.453 24.619 19.32 0 35.038-15.724 35.038-35.051s-15.718-35.051-35.038-35.051c-16.004 0-29.526 10.793-33.7 25.483h-28.991l-0.081-55.382c11.869-17.204 31.973-27.389 54.353-27.389 35.903 0 65.113 29.228 65.113 65.153 0 6.172 4.858 8.633 6.932 9.684 42.692 21.625 68.18 46.474 68.181 66.471 1e-3 24.902-16.313 54.212-43.612 55.093-2.67 0.08-5.15 1.2-6.98 3.15-1.83 1.94-2.79 4.49-2.7 7.16 0.08 2.61 1.16 5.05 3.04 6.87 1.87 1.82 4.34 2.82 6.95 2.82h0.03c0.09 0 0.189 0 0.279-0.01 16.717-1.884 32.961-8.194 44.037-21.333 19.059 11.758 31.004 32.736 31.004 55.471 0 24.371-13.441 46.52-35.079 57.803zm-135.8 80.98c0-8.299 6.746-15.051 15.038-15.051s15.038 6.752 15.038 15.051-6.746 15.051-15.038 15.051-15.038-6.752-15.038-15.051zm56.085-86.174c0-8.299 6.746-15.051 15.038-15.051s15.038 6.752 15.038 15.051-6.746 15.051-15.038 15.051-15.038-6.751-15.038-15.051zm-71.107-86.175c0-8.299 6.746-15.051 15.038-15.051s15.038 6.752 15.038 15.051-6.746 15.051-15.038 15.051-15.038-6.752-15.038-15.051zm7.01-124.62c0-8.299 6.746-15.051 15.038-15.051s15.038 6.752 15.038 15.051-6.746 15.051-15.038 15.051-15.038-6.752-15.038-15.051z"/>
		<path d="m132.44 331.53c-2.78-0.24-5.54 0.7-7.6 2.58-1.86 1.7-3 4.02-3.21 6.53-0.23 2.67 0.59 5.26 2.32 7.3 1.72 2.04 4.13 3.29 6.79 3.52 0.29 0.02 0.57 0.03 0.86 0.03 2.5 0 4.89-0.93 6.74-2.62 1.86-1.7 3-4.02 3.22-6.53 0-0.01 0-0.01-0.01-0.01 0.46-5.49-3.62-10.34-9.11-10.8z"/>
		<path d="m387.28 205.19-0.01-0.01c-1.87-1.81-4.34-2.8-6.94-2.8-2.74 0-5.3 1.08-7.2 3.05-1.85 1.92-2.85 4.45-2.8 7.12 0.04 2.67 1.12 5.16 3.04 7.01 0 0 0 0.01 0.01 0.01 1.87 1.81 4.34 2.81 6.94 2.81 2.74 0 5.3-1.09 7.2-3.06 3.82-3.96 3.72-10.29-0.24-14.13z"/>
</svg>
